# xmcd
#
# Track frame offsets:
#       150
#       26661
#       49381
#       69541
#       91467
#       105020
#       122282
#       142785
#       164145
#       178767
#       202269
#       217586
#       230729
#       251525
#       272383
#       286970
#       301686
#       321755
#       343150
#
# Disc length: 4786 seconds
#
# Revision: 0
# Processed by: cddbd v1.5.2PL0 Copyright (c) Steve Scherf et al.
# Submitted via: CD-DA_X-Tractor v0.24
#
DISCID=0e12b013
DTITLE=Ryan Adams and the Cardinals - Cold Roses
DYEAR=2005
DGENRE=alt-country
TTITLE0=Magnolia Mountain
TTITLE1=Sweet Illusions
TTITLE2=Meadowlake Street
TTITLE3=When Will You Come Back Home
TTITLE4=Beautiful Sorta
TTITLE5=Now That You're Gone
TTITLE6=Cherry Lane
TTITLE7=Mockingbirdsing
TTITLE8=How Do You Keep Love Alive
TTITLE9=Easy Plateau
TTITLE10=Let It Ride
TTITLE11=Rosebud
TTITLE12=Cold Roses
TTITLE13=If I Am A Stranger
TTITLE14=Dance All Night
TTITLE15=Blossom
TTITLE16=Life Is Beautiful
TTITLE17=Friends
TTITLE18=Tonight
EXTD=
EXTT0=
EXTT1=
EXTT2=
EXTT3=
EXTT4=
EXTT5=
EXTT6=
EXTT7=
EXTT8=
EXTT9=
EXTT10=
EXTT11=
EXTT12=
EXTT13=
EXTT14=
EXTT15=
EXTT16=
EXTT17=
EXTT18=
PLAYORDER=
